{
	"asset":{
		"generator":"Khronos glTF Blender I/O v4.1.63",
		"version":"2.0"
	},
	"extensionsUsed":[
		"KHR_materials_specular"
	],
	"scene":0,
	"scenes":[
		{
			"name":"Scene",
			"nodes":[
				0
			]
		}
	],
	"nodes":[
		{
			"mesh":0,
			"name":"NormalTree_1",
			"translation":[
				200.4676513671875,
				0,
				0
			]
		}
	],
	"materials":[
		{
			"doubleSided":true,
			"extensions":{
				"KHR_materials_specular":{
					"specularFactor":0
				}
			},
			"name":"NormalTree_Bark",
			"normalTexture":{
				"index":0
			},
			"pbrMetallicRoughness":{
				"baseColorTexture":{
					"index":1
				},
				"roughnessFactor":0.5527864098548889
			}
		},
		{
			"alphaMode":"BLEND",
			"doubleSided":true,
			"extensions":{
				"KHR_materials_specular":{
					"specularFactor":0
				}
			},
			"name":"NormalTree_Leaves",
			"pbrMetallicRoughness":{
				"baseColorTexture":{
					"index":2
				},
				"roughnessFactor":0.5527864098548889
			}
		}
	],
	"meshes":[
		{
			"name":"Cylinder.002",
			"primitives":[
				{
					"attributes":{
						"POSITION":0,
						"NORMAL":1,
						"TEXCOORD_0":2
					},
					"indices":3,
					"material":0
				},
				{
					"attributes":{
						"POSITION":4,
						"NORMAL":5,
						"TEXCOORD_0":6
					},
					"indices":7,
					"material":1
				}
			]
		}
	],
	"textures":[
		{
			"sampler":0,
			"source":0
		},
		{
			"sampler":0,
			"source":1
		},
		{
			"sampler":0,
			"source":2
		}
	],
	"images":[
		{
			"mimeType":"image/png",
			"name":"NormalTree_Bark_Normal",
			"uri":"NormalTree_Bark_Normal.png"
		},
		{
			"mimeType":"image/png",
			"name":"NormalTree_Bark",
			"uri":"NormalTree_Bark.png"
		},
		{
			"mimeType":"image/png",
			"name":"NormalTree_Leaves",
			"uri":"NormalTree_Leaves.png"
		}
	],
	"accessors":[
		{
			"bufferView":0,
			"componentType":5126,
			"count":2905,
			"max":[
				1.4404239654541016,
				6.185760498046875,
				0.6190109848976135
			],
			"min":[
				-1.6520121097564697,
				-0.009869025088846684,
				-0.676365852355957
			],
			"type":"VEC3"
		},
		{
			"bufferView":1,
			"componentType":5126,
			"count":2905,
			"type":"VEC3"
		},
		{
			"bufferView":2,
			"componentType":5126,
			"count":2905,
			"type":"VEC2"
		},
		{
			"bufferView":3,
			"componentType":5123,
			"count":14376,
			"type":"SCALAR"
		},
		{
			"bufferView":4,
			"componentType":5126,
			"count":7456,
			"max":[
				1.9202561378479004,
				6.856752395629883,
				1.2456235885620117
			],
			"min":[
				-2.1308679580688477,
				2.9108479022979736,
				-1.498358964920044
			],
			"type":"VEC3"
		},
		{
			"bufferView":5,
			"componentType":5126,
			"count":7456,
			"type":"VEC3"
		},
		{
			"bufferView":6,
			"componentType":5126,
			"count":7456,
			"type":"VEC2"
		},
		{
			"bufferView":7,
			"componentType":5123,
			"count":11184,
			"type":"SCALAR"
		}
	],
	"bufferViews":[
		{
			"buffer":0,
			"byteLength":34860,
			"byteOffset":0,
			"target":34962
		},
		{
			"buffer":0,
			"byteLength":34860,
			"byteOffset":34860,
			"target":34962
		},
		{
			"buffer":0,
			"byteLength":23240,
			"byteOffset":69720,
			"target":34962
		},
		{
			"buffer":0,
			"byteLength":28752,
			"byteOffset":92960,
			"target":34963
		},
		{
			"buffer":0,
			"byteLength":89472,
			"byteOffset":121712,
			"target":34962
		},
		{
			"buffer":0,
			"byteLength":89472,
			"byteOffset":211184,
			"target":34962
		},
		{
			"buffer":0,
			"byteLength":59648,
			"byteOffset":300656,
			"target":34962
		},
		{
			"buffer":0,
			"byteLength":22368,
			"byteOffset":360304,
			"target":34963
		}
	],
	"samplers":[
		{
			"magFilter":9729,
			"minFilter":9987
		}
	],
	"buffers":[
		{
			"byteLength":382672,
			"uri":"tree.bin"
		}
	]
}
