{
	"asset":{
		"generator":"Khronos glTF Blender I/O v4.1.63",
		"version":"2.0"
	},
	"scene":0,
	"scenes":[
		{
			"name":"Scene",
			"nodes":[
				14
			]
		}
	],
	"nodes":[
		{
			"name":"BirdRetop:polySurface1"
		},
		{
			"name":"Object_6"
		},
		{
			"name":"Bird_LeftWing_Tip_02",
			"rotation":[
				6.643520844562545e-09,
				-0.25543418526649475,
				2.5145922677438648e-08,
				0.9668264389038086
			],
			"scale":[
				0.9999999403953552,
				1,
				0.9999999403953552
			],
			"translation":[
				-0.22884097695350647,
				-2.2276763916015625,
				-1.2775413990020752
			]
		},
		{
			"children":[
				2
			],
			"name":"Bird_LeftWing_Pivot_01",
			"rotation":[
				-1.4451224217282288e-07,
				0.1748194545507431,
				-6.087935133791689e-08,
				0.9846005439758301
			],
			"translation":[
				0.8469961881637573,
				-0.19944092631340027,
				2.9271205903569353e-07
			]
		},
		{
			"name":"Bird_RightWing_Tip_04",
			"rotation":[
				-5.4255755443932685e-09,
				-0.9725307822227478,
				2.2668041665951932e-08,
				0.23277434706687927
			],
			"scale":[
				0.9999999403953552,
				1,
				0.9999999403953552
			],
			"translation":[
				-0.3190777003765106,
				-2.219698667526245,
				1.229040265083313
			]
		},
		{
			"children":[
				4
			],
			"name":"Bird_RightWing_Pivot_03",
			"rotation":[
				-1.590316323074603e-08,
				0.9500176906585693,
				-1.6038245576055488e-07,
				0.31219595670700073
			],
			"scale":[
				1,
				0.9999998807907104,
				1
			],
			"translation":[
				-0.7935823202133179,
				-0.20741842687129974,
				-0.3204847276210785
			]
		},
		{
			"children":[
				3,
				5
			],
			"name":"Bird_Body_00",
			"rotation":[
				8.855131738982891e-08,
				-0.6463748812675476,
				1.0453134535737263e-07,
				0.7630199790000916
			],
			"translation":[
				3.8988704681396484,
				0,
				6.173602855596982e-07
			]
		},
		{
			"children":[
				6
			],
			"name":"Bird_Root_05",
			"rotation":[
				-1.2560738395711113e-15,
				0.7071067094802856,
				3.743392066509216e-23,
				0.7071068286895752
			],
			"translation":[
				-0.005488704424351454,
				2.427117347717285,
				5.03591775894165
			]
		},
		{
			"children":[
				7
			],
			"name":"_rootJoint",
			"rotation":[
				-8.557136332854043e-09,
				1.7114272665708086e-08,
				-2.928983286277023e-16,
				1
			]
		},
		{
			"mesh":0,
			"name":"Object_7",
			"skin":0
		},
		{
			"children":[
				0,
				1,
				9,
				8
			],
			"name":"Object_4"
		},
		{
			"children":[
				10
			],
			"name":"RootNode"
		},
		{
			"children":[
				11
			],
			"name":"Object_2"
		},
		{
			"children":[
				12
			],
			"name":"48a629d8f15541558d2298aec3d77cfd.fbx",
			"rotation":[
				0.70710688829422,
				0,
				0,
				0.7071066498756409
			]
		},
		{
			"children":[
				13
			],
			"name":"Sketchfab_model",
			"rotation":[
				-0.70710688829422,
				0,
				0,
				0.7071066498756409
			]
		}
	],
	"animations":[
		{
			"channels":[
				{
					"sampler":0,
					"target":{
						"node":8,
						"path":"translation"
					}
				},
				{
					"sampler":1,
					"target":{
						"node":8,
						"path":"rotation"
					}
				},
				{
					"sampler":2,
					"target":{
						"node":8,
						"path":"scale"
					}
				},
				{
					"sampler":3,
					"target":{
						"node":7,
						"path":"translation"
					}
				},
				{
					"sampler":4,
					"target":{
						"node":7,
						"path":"rotation"
					}
				},
				{
					"sampler":5,
					"target":{
						"node":7,
						"path":"scale"
					}
				},
				{
					"sampler":6,
					"target":{
						"node":6,
						"path":"translation"
					}
				},
				{
					"sampler":7,
					"target":{
						"node":6,
						"path":"rotation"
					}
				},
				{
					"sampler":8,
					"target":{
						"node":6,
						"path":"scale"
					}
				},
				{
					"sampler":9,
					"target":{
						"node":3,
						"path":"translation"
					}
				},
				{
					"sampler":10,
					"target":{
						"node":3,
						"path":"rotation"
					}
				},
				{
					"sampler":11,
					"target":{
						"node":3,
						"path":"scale"
					}
				},
				{
					"sampler":12,
					"target":{
						"node":2,
						"path":"translation"
					}
				},
				{
					"sampler":13,
					"target":{
						"node":2,
						"path":"rotation"
					}
				},
				{
					"sampler":14,
					"target":{
						"node":2,
						"path":"scale"
					}
				},
				{
					"sampler":15,
					"target":{
						"node":5,
						"path":"translation"
					}
				},
				{
					"sampler":16,
					"target":{
						"node":5,
						"path":"rotation"
					}
				},
				{
					"sampler":17,
					"target":{
						"node":5,
						"path":"scale"
					}
				},
				{
					"sampler":18,
					"target":{
						"node":4,
						"path":"translation"
					}
				},
				{
					"sampler":19,
					"target":{
						"node":4,
						"path":"rotation"
					}
				},
				{
					"sampler":20,
					"target":{
						"node":4,
						"path":"scale"
					}
				}
			],
			"name":"Take 001",
			"samplers":[
				{
					"input":7,
					"interpolation":"STEP",
					"output":8
				},
				{
					"input":7,
					"interpolation":"STEP",
					"output":9
				},
				{
					"input":7,
					"interpolation":"STEP",
					"output":10
				},
				{
					"input":7,
					"interpolation":"STEP",
					"output":11
				},
				{
					"input":7,
					"interpolation":"STEP",
					"output":12
				},
				{
					"input":7,
					"interpolation":"STEP",
					"output":13
				},
				{
					"input":7,
					"interpolation":"STEP",
					"output":14
				},
				{
					"input":7,
					"interpolation":"STEP",
					"output":15
				},
				{
					"input":7,
					"interpolation":"STEP",
					"output":16
				},
				{
					"input":7,
					"interpolation":"STEP",
					"output":17
				},
				{
					"input":18,
					"interpolation":"LINEAR",
					"output":19
				},
				{
					"input":7,
					"interpolation":"STEP",
					"output":20
				},
				{
					"input":7,
					"interpolation":"STEP",
					"output":21
				},
				{
					"input":7,
					"interpolation":"STEP",
					"output":22
				},
				{
					"input":7,
					"interpolation":"STEP",
					"output":23
				},
				{
					"input":7,
					"interpolation":"STEP",
					"output":24
				},
				{
					"input":18,
					"interpolation":"LINEAR",
					"output":25
				},
				{
					"input":7,
					"interpolation":"STEP",
					"output":26
				},
				{
					"input":7,
					"interpolation":"STEP",
					"output":27
				},
				{
					"input":7,
					"interpolation":"STEP",
					"output":28
				},
				{
					"input":7,
					"interpolation":"STEP",
					"output":29
				}
			]
		}
	],
	"materials":[
		{
			"doubleSided":true,
			"name":"blinn2",
			"normalTexture":{
				"index":0,
				"scale":0
			},
			"pbrMetallicRoughness":{
				"baseColorTexture":{
					"index":1
				},
				"metallicFactor":0
			}
		}
	],
	"meshes":[
		{
			"name":"BirdRetop:polySurface1_blinn2_0",
			"primitives":[
				{
					"attributes":{
						"POSITION":0,
						"NORMAL":1,
						"TEXCOORD_0":2,
						"JOINTS_0":3,
						"WEIGHTS_0":4
					},
					"indices":5,
					"material":0
				}
			]
		}
	],
	"textures":[
		{
			"sampler":0,
			"source":0
		},
		{
			"sampler":0,
			"source":1
		}
	],
	"images":[
		{
			"mimeType":"image/jpeg",
			"name":"blinn2_normal",
			"uri":"blinn2_normal.jpg"
		},
		{
			"mimeType":"image/jpeg",
			"name":"blinn2_baseColor",
			"uri":"blinn2_baseColor.jpg"
		}
	],
	"skins":[
		{
			"inverseBindMatrices":6,
			"joints":[
				8,
				7,
				6,
				3,
				2,
				5,
				4
			],
			"name":"Object_4"
		}
	],
	"accessors":[
		{
			"bufferView":0,
			"componentType":5126,
			"count":1737,
			"max":[
				2.8665578365325928,
				1.2217373847961426,
				4.600831508636475
			],
			"min":[
				-2.682274341583252,
				-0.8585811853408813,
				-4.7051496505737305
			],
			"type":"VEC3"
		},
		{
			"bufferView":1,
			"componentType":5126,
			"count":1737,
			"type":"VEC3"
		},
		{
			"bufferView":2,
			"componentType":5126,
			"count":1737,
			"type":"VEC2"
		},
		{
			"bufferView":3,
			"componentType":5121,
			"count":1737,
			"type":"VEC4"
		},
		{
			"bufferView":4,
			"componentType":5126,
			"count":1737,
			"type":"VEC4"
		},
		{
			"bufferView":5,
			"componentType":5123,
			"count":6804,
			"type":"SCALAR"
		},
		{
			"bufferView":6,
			"componentType":5126,
			"count":7,
			"type":"MAT4"
		},
		{
			"bufferView":7,
			"componentType":5126,
			"count":2,
			"max":[
				4.958333333333333
			],
			"min":[
				0.041666666666666664
			],
			"type":"SCALAR"
		},
		{
			"bufferView":8,
			"componentType":5126,
			"count":2,
			"type":"VEC3"
		},
		{
			"bufferView":9,
			"componentType":5126,
			"count":2,
			"type":"VEC4"
		},
		{
			"bufferView":10,
			"componentType":5126,
			"count":2,
			"type":"VEC3"
		},
		{
			"bufferView":11,
			"componentType":5126,
			"count":2,
			"type":"VEC3"
		},
		{
			"bufferView":12,
			"componentType":5126,
			"count":2,
			"type":"VEC4"
		},
		{
			"bufferView":13,
			"componentType":5126,
			"count":2,
			"type":"VEC3"
		},
		{
			"bufferView":14,
			"componentType":5126,
			"count":2,
			"type":"VEC3"
		},
		{
			"bufferView":15,
			"componentType":5126,
			"count":2,
			"type":"VEC4"
		},
		{
			"bufferView":16,
			"componentType":5126,
			"count":2,
			"type":"VEC3"
		},
		{
			"bufferView":17,
			"componentType":5126,
			"count":2,
			"type":"VEC3"
		},
		{
			"bufferView":18,
			"componentType":5126,
			"count":119,
			"max":[
				4.958333333333333
			],
			"min":[
				0.041666666666666664
			],
			"type":"SCALAR"
		},
		{
			"bufferView":19,
			"componentType":5126,
			"count":119,
			"type":"VEC4"
		},
		{
			"bufferView":20,
			"componentType":5126,
			"count":2,
			"type":"VEC3"
		},
		{
			"bufferView":21,
			"componentType":5126,
			"count":2,
			"type":"VEC3"
		},
		{
			"bufferView":22,
			"componentType":5126,
			"count":2,
			"type":"VEC4"
		},
		{
			"bufferView":23,
			"componentType":5126,
			"count":2,
			"type":"VEC3"
		},
		{
			"bufferView":24,
			"componentType":5126,
			"count":2,
			"type":"VEC3"
		},
		{
			"bufferView":25,
			"componentType":5126,
			"count":119,
			"type":"VEC4"
		},
		{
			"bufferView":26,
			"componentType":5126,
			"count":2,
			"type":"VEC3"
		},
		{
			"bufferView":27,
			"componentType":5126,
			"count":2,
			"type":"VEC3"
		},
		{
			"bufferView":28,
			"componentType":5126,
			"count":2,
			"type":"VEC4"
		},
		{
			"bufferView":29,
			"componentType":5126,
			"count":2,
			"type":"VEC3"
		}
	],
	"bufferViews":[
		{
			"buffer":0,
			"byteLength":20844,
			"byteOffset":0,
			"target":34962
		},
		{
			"buffer":0,
			"byteLength":20844,
			"byteOffset":20844,
			"target":34962
		},
		{
			"buffer":0,
			"byteLength":13896,
			"byteOffset":41688,
			"target":34962
		},
		{
			"buffer":0,
			"byteLength":6948,
			"byteOffset":55584,
			"target":34962
		},
		{
			"buffer":0,
			"byteLength":27792,
			"byteOffset":62532,
			"target":34962
		},
		{
			"buffer":0,
			"byteLength":13608,
			"byteOffset":90324,
			"target":34963
		},
		{
			"buffer":0,
			"byteLength":448,
			"byteOffset":103932
		},
		{
			"buffer":0,
			"byteLength":8,
			"byteOffset":104380
		},
		{
			"buffer":0,
			"byteLength":24,
			"byteOffset":104388
		},
		{
			"buffer":0,
			"byteLength":32,
			"byteOffset":104412
		},
		{
			"buffer":0,
			"byteLength":24,
			"byteOffset":104444
		},
		{
			"buffer":0,
			"byteLength":24,
			"byteOffset":104468
		},
		{
			"buffer":0,
			"byteLength":32,
			"byteOffset":104492
		},
		{
			"buffer":0,
			"byteLength":24,
			"byteOffset":104524
		},
		{
			"buffer":0,
			"byteLength":24,
			"byteOffset":104548
		},
		{
			"buffer":0,
			"byteLength":32,
			"byteOffset":104572
		},
		{
			"buffer":0,
			"byteLength":24,
			"byteOffset":104604
		},
		{
			"buffer":0,
			"byteLength":24,
			"byteOffset":104628
		},
		{
			"buffer":0,
			"byteLength":476,
			"byteOffset":104652
		},
		{
			"buffer":0,
			"byteLength":1904,
			"byteOffset":105128
		},
		{
			"buffer":0,
			"byteLength":24,
			"byteOffset":107032
		},
		{
			"buffer":0,
			"byteLength":24,
			"byteOffset":107056
		},
		{
			"buffer":0,
			"byteLength":32,
			"byteOffset":107080
		},
		{
			"buffer":0,
			"byteLength":24,
			"byteOffset":107112
		},
		{
			"buffer":0,
			"byteLength":24,
			"byteOffset":107136
		},
		{
			"buffer":0,
			"byteLength":1904,
			"byteOffset":107160
		},
		{
			"buffer":0,
			"byteLength":24,
			"byteOffset":109064
		},
		{
			"buffer":0,
			"byteLength":24,
			"byteOffset":109088
		},
		{
			"buffer":0,
			"byteLength":32,
			"byteOffset":109112
		},
		{
			"buffer":0,
			"byteLength":24,
			"byteOffset":109144
		}
	],
	"samplers":[
		{
			"magFilter":9729,
			"minFilter":9987
		}
	],
	"buffers":[
		{
			"byteLength":109168,
			"uri":"untitled.bin"
		}
	]
}
